<?xml version="1.0" standalone="no"?>
<!DOCTYPE svg PUBLIC "-//W3C//DTD SVG 20010904//EN"
 "http://www.w3.org/TR/2001/REC-SVG-20010904/DTD/svg10.dtd">
<svg version="1.0" xmlns="http://www.w3.org/2000/svg"
 width="576.000000pt" height="576.000000pt" viewBox="0 0 576.000000 576.000000"
 preserveAspectRatio="xMidYMid meet">
<metadata>
Created by potrace 1.14, written by Peter Selinger 2001-2017
</metadata>
<g transform="translate(0.000000,576.000000) scale(0.100000,-0.100000)"
fill="#000000" stroke="none">
<path d="M1768 5115 c-2 -1 -32 -5 -68 -9 -36 -3 -76 -8 -90 -11 -14 -3 -42
-7 -64 -10 -21 -3 -42 -8 -47 -11 -5 -3 -22 -7 -37 -10 -15 -3 -52 -12 -82
-21 -69 -21 -62 -19 -80 -26 -8 -3 -46 -18 -85 -32 -77 -29 -233 -105 -276
-135 -15 -11 -30 -20 -33 -20 -9 0 -144 -97 -206 -148 -57 -47 -242 -233 -272
-274 -9 -13 -28 -36 -41 -53 -39 -50 -107 -153 -107 -164 0 -5 -4 -11 -9 -13
-9 -3 -62 -103 -60 -114 0 -4 -3 -10 -8 -13 -39 -26 -159 -392 -178 -541 -3
-25 -9 -67 -13 -95 -9 -62 -8 -373 1 -440 10 -72 26 -161 41 -230 26 -114 107
-332 156 -420 47 -85 138 -234 150 -245 3 -3 25 -32 50 -65 61 -83 229 -250
325 -324 44 -34 86 -66 92 -71 7 -6 30 -20 50 -32 21 -12 40 -25 43 -28 3 -4
12 -9 21 -13 16 -5 22 -40 19 -102 -1 -11 -1 -27 -1 -35 0 -8 0 -40 0 -70 0
-30 0 -59 0 -65 0 -5 0 -32 0 -60 1 -27 0 -78 -1 -113 -2 -34 -1 -62 2 -62 3
0 5 -22 5 -50 0 -27 -3 -50 -7 -50 -4 0 -6 -6 -3 -12 2 -7 6 -37 9 -66 8 -68
26 -109 66 -149 46 -46 87 -65 153 -68 68 -4 132 15 167 49 33 31 71 76 65 76
-3 0 0 10 6 22 12 23 20 59 20 88 0 8 0 44 0 80 0 36 0 72 0 80 0 8 -1 36 -1
63 -1 26 1 51 5 56 3 5 2 12 -2 14 -5 3 -7 41 -5 85 4 89 -2 84 77 65 17 -4
32 -7 35 -8 7 -2 111 -17 140 -21 42 -6 244 -17 265 -15 11 1 43 3 70 4 l50 2
0 -32 c0 -18 2 -33 5 -33 3 0 5 -40 5 -90 0 -49 -2 -90 -5 -90 -6 0 -4 -105 4
-182 2 -29 12 -67 21 -85 21 -43 73 -92 115 -111 47 -20 147 -23 182 -6 16 8
28 12 28 9 0 -5 42 29 73 60 29 30 59 109 58 153 0 6 -1 37 -1 67 -1 30 1 59
4 64 4 5 2 12 -2 15 -5 3 -6 26 -2 51 4 25 4 45 0 45 -4 0 -4 20 0 45 4 25 4
45 0 45 -4 0 -4 19 -1 42 4 24 4 60 0 81 -8 49 0 56 95 93 42 16 76 32 76 36
0 5 7 8 15 8 17 0 148 70 153 82 2 4 8 8 13 8 4 0 46 22 91 49 334 197 611
295 863 307 55 3 105 7 112 9 7 2 15 0 17 -4 3 -5 23 -5 45 -1 22 4 44 4 50 1
5 -4 40 -4 76 -1 37 3 68 3 71 -1 2 -3 21 -3 43 1 22 4 45 4 52 -1 7 -4 16 -6
19 -4 6 3 83 6 120 4 8 0 45 1 81 4 l66 4 64 -94 c35 -52 69 -100 75 -106 5
-7 30 -41 54 -77 24 -36 47 -66 52 -68 4 -2 8 -8 8 -13 0 -5 24 -42 53 -82 29
-39 66 -92 82 -117 17 -25 33 -47 36 -50 3 -3 25 -34 49 -70 24 -36 47 -66 52
-68 4 -2 8 -10 8 -17 0 -7 4 -15 8 -17 4 -1 23 -27 42 -56 18 -28 37 -52 42
-52 4 0 8 -5 8 -11 0 -9 42 -74 77 -119 7 -8 45 -62 85 -119 91 -130 110 -145
187 -146 48 0 64 5 94 28 72 55 68 -43 64 1396 -2 713 -6 1312 -11 1331 -4 19
-9 44 -11 55 -1 11 -10 47 -20 80 -114 404 -389 706 -790 866 -57 23 -170 52
-248 64 -87 14 -320 21 -338 9 -5 -3 -9 -1 -9 4 0 5 -20 6 -45 2 -25 -4 -47
-4 -49 -1 -2 3 -38 4 -80 1 -42 -3 -76 -2 -76 1 0 3 -22 3 -50 -1 -27 -4 -50
-4 -50 -1 0 3 -39 6 -88 6 -88 1 -149 7 -232 25 -81 18 -89 20 -117 31 -16 6
-35 12 -44 14 -76 15 -323 135 -536 259 -90 52 -163 92 -163 89 0 -4 -8 1 -17
10 -17 15 -214 98 -270 114 -7 1 -19 5 -25 6 -7 2 -20 7 -28 10 -38 15 -212
51 -309 64 -40 5 -378 12 -383 8z m2787 -1690 c62 -17 128 -79 148 -139 57
-168 -61 -330 -235 -322 -69 4 -114 24 -161 72 -85 88 -86 240 -1 329 64 67
150 88 249 60z"/>
</g>
</svg>
